ffmpeg started on 2025-06-27 at 12:11:17
Report written to "D:\Convert\FFMetrics\reports\ssim_report-6.txt"
Log level: 32
Command line:
ffmpeg -hide_banner -nostdin -i "G:\\\xc0\xed\xe8\xec\xe5\\[\xd2\xee\xef]\\\xcf\xee\xe2\xe5\xeb\xe8\xf2\xe5\xeb\xfc\\\xd2\xc2-3\\Special\\[Ohys-Raws] Overlord III - Sp.12 (BDRip-720p)_HEVC.mkv" -i "G:\\\xc0\xed\xe8\xec\xe5\\[\xd2\xee\xef]\\\xcf\xee\xe2\xe5\xeb\xe8\xf2\xe5\xeb\xfc\\\xd2\xc2-3\\Special\\[Ohys-Raws] Overlord III - Sp.12 (BDRip-720p).mkv" -lavfi "[0:v]settb=AVTB,setpts=PTS-STARTPTS,format=pix_fmts=yuv420p10,fps=24000/1001,scale=1280:720:flags=bicubic[main];[1:v]settb=AVTB,setpts=PTS-STARTPTS,format=pix_fmts=yuv420p,fps=24000/1001,scale=1280:720:flags=bicubic[ref];[main][ref]ssim=eof_action=endall:stats_file='D\\:/Convert/FFMetrics/logs/ssim_logfile-6.txt'" -f null -
Input #0, matroska,webm, from 'G:\Аниме\[Топ]\Повелитель\ТВ-3\Special\[Ohys-Raws] Overlord III - Sp.12 (BDRip-720p)_HEVC.mkv':
  Metadata:
    ENCODER         : Lavf61.7.100
  Duration: 00:01:32.12, start: -0.018000, bitrate: 522 kb/s
  Stream #0:0(jpn): Video: hevc (Main 10), yuv420p10le(tv, bt709, progressive), 1280x720 [SAR 1:1 DAR 16:9], 23.98 fps, 23.98 tbr, 1k tbn (default)
      Metadata:
        ENCODER         : Lavc61.19.100 libx265
        BPS             : 323462
        DURATION        : 00:01:32.091708333
        NUMBER_OF_FRAMES: 2208
        NUMBER_OF_BYTES : 3723502
        _STATISTICS_WRITING_APP: mkvpropedit v66.0.0 ('Josie') 64-bit
        _STATISTICS_WRITING_DATE_UTC: 2025-06-27 08:35:25
        _STATISTICS_TAGS: BPS DURATION NUMBER_OF_FRAMES NUMBER_OF_BYTES
  Stream #0:1(jpn): Audio: aac (LC), 48000 Hz, stereo, fltp (default)
      Metadata:
        ENCODER         : Lavc61.19.100 aac
        BPS             : 195293
        DURATION        : 00:01:32.096000000
        NUMBER_OF_FRAMES: 4318
        NUMBER_OF_BYTES : 2248223
        _STATISTICS_WRITING_APP: mkvpropedit v66.0.0 ('Josie') 64-bit
        _STATISTICS_WRITING_DATE_UTC: 2025-06-27 08:35:25
        _STATISTICS_TAGS: BPS DURATION NUMBER_OF_FRAMES NUMBER_OF_BYTES
Input #1, matroska,webm, from 'G:\Аниме\[Топ]\Повелитель\ТВ-3\Special\[Ohys-Raws] Overlord III - Sp.12 (BDRip-720p).mkv':
  Metadata:
    encoder         : libebml v1.2.3 + libmatroska v1.3.0
    creation_time   : 2019-10-11T21:17:33.000000Z
  Duration: 00:01:32.10, start: 0.000000, bitrate: 1170 kb/s
  Stream #1:0(jpn): Video: h264 (Main), yuv420p(progressive), 1280x720 [SAR 1:1 DAR 16:9], 23.98 fps, 23.98 tbr, 1k tbn (default)
  Stream #1:1(jpn): Audio: aac (LC), 48000 Hz, stereo, fltp (default)
Stream mapping:
  Stream #0:0 (hevc) -> settb:default
  Stream #1:0 (h264) -> settb:default
  ssim:default -> Stream #0:0 (wrapped_avframe)
  Stream #0:1 -> #0:1 (aac (native) -> pcm_s16le (native))
[swscaler @ 000002b93b471440] No accelerated colorspace conversion found from yuv420p to bgr48le.
[swscaler @ 000002b93b5d1a00] No accelerated colorspace conversion found from yuv420p to bgr48le.
[swscaler @ 000002b93b6efd00] No accelerated colorspace conversion found from yuv420p to bgr48le.
[swscaler @ 000002b93b8b0b00] No accelerated colorspace conversion found from yuv420p to bgr48le.
[swscaler @ 000002b93b995ec0] No accelerated colorspace conversion found from yuv420p to bgr48le.
[swscaler @ 000002b93bb7d880] No accelerated colorspace conversion found from yuv420p to bgr48le.
[swscaler @ 000002b93bbdb740] No accelerated colorspace conversion found from yuv420p to bgr48le.
[swscaler @ 000002b93bd1bf00] No accelerated colorspace conversion found from yuv420p to bgr48le.
[swscaler @ 000002b93bd78040] No accelerated colorspace conversion found from yuv420p to bgr48le.
[swscaler @ 000002b93be0c3c0] No accelerated colorspace conversion found from yuv420p to bgr48le.
[swscaler @ 000002b93be78040] No accelerated colorspace conversion found from yuv420p to bgr48le.
[swscaler @ 000002b93bedc040] No accelerated colorspace conversion found from yuv420p to bgr48le.
[swscaler @ 000002b93bf3a040] No accelerated colorspace conversion found from yuv420p to bgr48le.
[swscaler @ 000002b93bfb5040] No accelerated colorspace conversion found from yuv420p to bgr48le.
[swscaler @ 000002b93c02b040] No accelerated colorspace conversion found from yuv420p to bgr48le.
[swscaler @ 000002b9416100c0] No accelerated colorspace conversion found from yuv420p to bgr48le.
Output #0, null, to 'pipe:':
  Metadata:
    encoder         : Lavf61.7.100
  Stream #0:0: Video: wrapped_avframe, yuv420p10le(tv, bt709, progressive), 1280x720 [SAR 1:1 DAR 16:9], q=2-31, 200 kb/s, 23.98 fps, 23.98 tbn
      Metadata:
        encoder         : Lavc61.19.100 wrapped_avframe
  Stream #0:1(jpn): Audio: pcm_s16le, 48000 Hz, stereo, s16, 1536 kb/s (default)
      Metadata:
        _STATISTICS_TAGS: BPS DURATION NUMBER_OF_FRAMES NUMBER_OF_BYTES
        BPS             : 195293
        DURATION        : 00:01:32.096000000
        NUMBER_OF_FRAMES: 4318
        NUMBER_OF_BYTES : 2248223
        _STATISTICS_WRITING_APP: mkvpropedit v66.0.0 ('Josie') 64-bit
        _STATISTICS_WRITING_DATE_UTC: 2025-06-27 08:35:25
        encoder         : Lavc61.19.100 pcm_s16le
frame=   81 fps=0.0 q=-0.0 size=N/A time=00:00:03.37 bitrate=N/A speed=6.51x    frame=  172 fps=165 q=-0.0 size=N/A time=00:00:07.17 bitrate=N/A speed=6.88x    frame=  269 fps=174 q=-0.0 size=N/A time=00:00:11.21 bitrate=N/A speed=7.24x    frame=  362 fps=176 q=-0.0 size=N/A time=00:00:15.09 bitrate=N/A speed=7.32x    frame=  457 fps=177 q=-0.0 size=N/A time=00:00:19.06 bitrate=N/A speed=7.38x    frame=  556 fps=179 q=-0.0 size=N/A time=00:00:23.18 bitrate=N/A speed=7.47x    frame=  645 fps=179 q=-0.0 size=N/A time=00:00:26.90 bitrate=N/A speed=7.45x    frame=  743 fps=180 q=-0.0 size=N/A time=00:00:30.98 bitrate=N/A speed=7.49x    frame=  841 fps=181 q=-0.0 size=N/A time=00:00:35.07 bitrate=N/A speed=7.55x    frame=  931 fps=181 q=-0.0 size=N/A time=00:00:38.83 bitrate=N/A speed=7.53x    frame= 1031 fps=182 q=-0.0 size=N/A time=00:00:43.00 bitrate=N/A speed=7.58x    frame= 1127 fps=182 q=-0.0 size=N/A time=00:00:47.00 bitrate=N/A speed=7.58x    frame= 1220 fps=182 q=-0.0 size=N/A time=00:00:50.88 bitrate=N/A speed=7.59x    frame= 1314 fps=182 q=-0.0 size=N/A time=00:00:54.80 bitrate=N/A speed=7.58x    frame= 1410 fps=182 q=-0.0 size=N/A time=00:00:58.80 bitrate=N/A speed=7.59x    frame= 1506 fps=182 q=-0.0 size=N/A time=00:01:02.81 bitrate=N/A speed=7.61x    frame= 1608 fps=183 q=-0.0 size=N/A time=00:01:07.06 bitrate=N/A speed=7.64x    frame= 1698 fps=183 q=-0.0 size=N/A time=00:01:10.82 bitrate=N/A speed=7.62x    frame= 1796 fps=183 q=-0.0 size=N/A time=00:01:14.90 bitrate=N/A speed=7.65x    frame= 1896 fps=184 q=-0.0 size=N/A time=00:01:19.07 bitrate=N/A speed=7.66x    frame= 1984 fps=183 q=-0.0 size=N/A time=00:01:22.74 bitrate=N/A speed=7.64x    frame= 2083 fps=184 q=-0.0 size=N/A time=00:01:26.87 bitrate=N/A speed=7.66x    frame= 2184 fps=184 q=-0.0 size=N/A time=00:01:31.09 bitrate=N/A speed=7.67x    [Parsed_ssim_10 @ 000002b93ac927c0] SSIM Y:0.991919 (20.925288) U:0.990695 (20.312897) V:0.990069 (20.030196) All:0.991407 (20.658380)
[out#0/null @ 000002b92ee8d840] video:949KiB audio:17272KiB subtitle:0KiB other streams:0KiB global headers:0KiB muxing overhead: unknown
frame= 2208 fps=184 q=-0.0 Lsize=N/A time=00:01:32.09 bitrate=N/A speed=7.68x    
